<svg id="OWMN_Logo" data-name="OWMN Logo Light" xmlns="http://www.w3.org/2000/svg" width="499.971" height="499.971" viewBox="0 0 577 577" style="width: 100%; height: 100%;">
  <metadata><!--?xpacket begin="﻿" id="W5M0MpCehiHzreSzNTczkc9d"?-->
<x:xmpmeta xmlns:x="adobe:ns:meta/" x:xmptk="Adobe XMP Core 5.6-c142 79.160924, 2017/07/13-01:06:39        ">
   <rdf:rdf xmlns:rdf="http://www.w3.org/1999/02/22-rdf-syntax-ns#">
      <rdf:description rdf:about=""></rdf:description>
   </rdf:rdf>
</x:xmpmeta>
                                                                                                    
                                                                                                    
                                                                                                    
                                                                                                    
                                                                                                    
                                                                                                    
                                                                                                    
                                                                                                    
                                                                                                    
                                                                                                    
                                                                                                    
                                                                                                    
                                                                                                    
                                                                                                    
                                                                                                    
                                                                                                    
                                                                                                    
                                                                                                    
                                                                                                    
                                                                                                    
                           
<!--?xpacket end="w"?--></metadata>
<defs>
    <style>
      .cls-1 {
        fill: #ff9600;
        stroke: #ff9600;
      }

      .cls-1, .cls-2 {
        stroke-width: 1px;
        fill-rule: evenodd;
      }

      .cls-2 {
        fill: #353535;
      }

      .cls-2, .cls-3 {
        stroke: #353535;
      }

      .cls-3 {
        fill: none;
        stroke-width: 14px;
      }
    </style>
  </defs>
  <path id="Top_Arc" data-name="Top Arc" class="cls-1" d="M206,153.339c6.167,6.167-47.821-47.11-44-43.289,80.031-58.7,178.811-58.7,253.2,0-23.146,23.147-41.8,38.884-46.2,43.289C308.207,124.705,267.894,124.044,206,153.339Z"></path>
  <path id="Bottom_Arc" data-name="Bottom Arc" class="cls-1" d="M383.877,413.219c-50.761,47.207-158.106,38.328-192.175,0,0,0-35.291,38.992-40.7,45.781,69.741,65.434,208.622,69.505,274,0C393.506,423.379,383.877,413.219,383.877,413.219Z"></path>
  <path id="Right_M" data-name="Right M" class="cls-2" d="M488,380V195c-27.2-56.1-57-74-57-74L300,250s0.927,108.679,1,115,36-72,36-72l91-95s1,169.435,1,171c-0.939,13.3-29.809,34.347-32,32s39.963,42.963,43,46C482.907,405.17,488,380,488,380Z" style="fill: rgb(255, 255, 255); stroke: rgb(255, 255, 255);"></path>
  <path id="Left_M" data-name="Left M" class="cls-2" d="M88,380V195c27.2-56.1,57-74,57-74L276,250s-0.928,108.679-1,115-36-72-36-72l-91-95s-1,169.435-1,171c0.939,13.3,29.809,34.347,32,32s-39.963,42.963-43,46C93.093,405.17,88,380,88,380Z" style="fill: rgb(255, 255, 255); stroke: rgb(255, 255, 255);"></path>
  <circle id="Outer_Ring" data-name="Outer Ring" class="cls-3" cx="288" cy="288" r="250" style="fill: rgba(0, 0, 0, 0); stroke: rgb(255, 255, 255);"></circle>
</svg>
